<mxfile host="app.diagrams.net" agent="Mozilla/5.0 (Windows NT 10.0; Win64; x64; rv:130.0) Gecko/20100101 Firefox/130.0" version="24.7.10" pages="4">
  <diagram name="Java" id="DRr1o6Fy77yyPGRX1w4p">
    <mxGraphModel dx="2234" dy="1204" grid="0" gridSize="10" guides="1" tooltips="1" connect="1" arrows="1" fold="1" page="0" pageScale="1" pageWidth="850" pageHeight="1100" math="0" shadow="0">
      <root>
        <mxCell id="0" />
        <mxCell id="1" parent="0" />
        <mxCell id="Q9XrBwzVl63_mfP44V4U-30" style="edgeStyle=none;curved=1;rounded=0;orthogonalLoop=1;jettySize=auto;html=1;fontSize=12;startSize=8;endSize=8;" edge="1" parent="1" source="3" target="12">
          <mxGeometry relative="1" as="geometry" />
        </mxCell>
        <mxCell id="Q9XrBwzVl63_mfP44V4U-31" style="edgeStyle=none;curved=1;rounded=0;orthogonalLoop=1;jettySize=auto;html=1;fontSize=12;startSize=8;endSize=8;" edge="1" parent="1" source="3" target="11">
          <mxGeometry relative="1" as="geometry" />
        </mxCell>
        <mxCell id="Q9XrBwzVl63_mfP44V4U-32" style="edgeStyle=none;curved=1;rounded=0;orthogonalLoop=1;jettySize=auto;html=1;fontSize=12;startSize=8;endSize=8;" edge="1" parent="1" source="3" target="10">
          <mxGeometry relative="1" as="geometry" />
        </mxCell>
        <mxCell id="Q9XrBwzVl63_mfP44V4U-33" style="edgeStyle=none;curved=1;rounded=0;orthogonalLoop=1;jettySize=auto;html=1;fontSize=12;startSize=8;endSize=8;" edge="1" parent="1" source="3" target="13">
          <mxGeometry relative="1" as="geometry" />
        </mxCell>
        <mxCell id="3" value="Object-Oriented Programming" style="whiteSpace=wrap;strokeWidth=2;" parent="1" vertex="1">
          <mxGeometry x="453" y="-94" width="231" height="34" as="geometry" />
        </mxCell>
        <mxCell id="4" value="Platform Independence" style="whiteSpace=wrap;strokeWidth=2;" parent="1" vertex="1">
          <mxGeometry x="600" y="248" width="183" height="34" as="geometry" />
        </mxCell>
        <mxCell id="6" value="Memory Management" style="whiteSpace=wrap;strokeWidth=2;" parent="1" vertex="1">
          <mxGeometry x="606" y="305" width="167" height="34" as="geometry" />
        </mxCell>
        <mxCell id="7" value="Garbage Collection" style="whiteSpace=wrap;strokeWidth=2;" parent="1" vertex="1">
          <mxGeometry x="606" y="362" width="152" height="34" as="geometry" />
        </mxCell>
        <mxCell id="8" value="Exception Handling" style="whiteSpace=wrap;strokeWidth=2;" parent="1" vertex="1">
          <mxGeometry x="613" y="415" width="153" height="34" as="geometry" />
        </mxCell>
        <mxCell id="9" value="Concurrency" style="whiteSpace=wrap;strokeWidth=2;" parent="1" vertex="1">
          <mxGeometry x="615" y="464" width="104" height="34" as="geometry" />
        </mxCell>
        <mxCell id="10" value="Inheritance" style="whiteSpace=wrap;strokeWidth=2;" parent="1" vertex="1">
          <mxGeometry x="768" y="-244" width="97" height="34" as="geometry" />
        </mxCell>
        <mxCell id="11" value="Polymorphism" style="whiteSpace=wrap;strokeWidth=2;" parent="1" vertex="1">
          <mxGeometry x="759" y="-160" width="114" height="34" as="geometry" />
        </mxCell>
        <mxCell id="12" value="Encapsulation" style="whiteSpace=wrap;strokeWidth=2;" parent="1" vertex="1">
          <mxGeometry x="760" y="-76" width="114" height="34" as="geometry" />
        </mxCell>
        <mxCell id="13" value="Abstraction" style="whiteSpace=wrap;strokeWidth=2;" parent="1" vertex="1">
          <mxGeometry x="768" y="8" width="97" height="34" as="geometry" />
        </mxCell>
        <mxCell id="15" value="Java Virtual Machine" style="whiteSpace=wrap;strokeWidth=2;" parent="1" vertex="1">
          <mxGeometry x="613" y="516" width="163" height="34" as="geometry" />
        </mxCell>
        <mxCell id="GuU51cK0R8P09dkp39Ko-27" value="" style="edgeStyle=none;curved=1;rounded=0;orthogonalLoop=1;jettySize=auto;html=1;fontSize=12;startSize=8;endSize=8;" edge="1" parent="1" source="GuU51cK0R8P09dkp39Ko-24" target="GuU51cK0R8P09dkp39Ko-26">
          <mxGeometry relative="1" as="geometry" />
        </mxCell>
        <mxCell id="GuU51cK0R8P09dkp39Ko-39" value="" style="edgeStyle=none;curved=1;rounded=0;orthogonalLoop=1;jettySize=auto;html=1;fontSize=12;startSize=8;endSize=8;" edge="1" parent="1" source="GuU51cK0R8P09dkp39Ko-24" target="GuU51cK0R8P09dkp39Ko-38">
          <mxGeometry relative="1" as="geometry" />
        </mxCell>
        <mxCell id="GuU51cK0R8P09dkp39Ko-40" value="" style="edgeStyle=none;curved=1;rounded=0;orthogonalLoop=1;jettySize=auto;html=1;fontSize=12;startSize=8;endSize=8;" edge="1" parent="1" source="GuU51cK0R8P09dkp39Ko-24" target="GuU51cK0R8P09dkp39Ko-38">
          <mxGeometry relative="1" as="geometry" />
        </mxCell>
        <mxCell id="GuU51cK0R8P09dkp39Ko-24" value="&lt;div&gt;Core&lt;/div&gt;" style="whiteSpace=wrap;html=1;" vertex="1" parent="1">
          <mxGeometry x="-60" y="142" width="120" height="60" as="geometry" />
        </mxCell>
        <mxCell id="GuU51cK0R8P09dkp39Ko-26" value="Object-Oriented Programming" style="whiteSpace=wrap;html=1;verticalAlign=middle;" vertex="1" parent="1">
          <mxGeometry x="60" y="-21" width="120" height="60" as="geometry" />
        </mxCell>
        <mxCell id="GuU51cK0R8P09dkp39Ko-28" value="Workings" style="swimlane;startSize=20;horizontal=1;childLayout=flowLayout;flowOrientation=north;resizable=0;interRankCellSpacing=50;containerType=tree;fontSize=12;fillColor=#ffe6cc;strokeColor=#d79b00;" vertex="1" parent="1">
          <mxGeometry x="-404" y="324" width="270" height="280" as="geometry" />
        </mxCell>
        <mxCell id="GuU51cK0R8P09dkp39Ko-29" value="Start" style="whiteSpace=wrap;html=1;" vertex="1" parent="GuU51cK0R8P09dkp39Ko-28">
          <mxGeometry x="85" y="40" width="100" height="40" as="geometry" />
        </mxCell>
        <mxCell id="GuU51cK0R8P09dkp39Ko-30" value="Task" style="whiteSpace=wrap;html=1;" vertex="1" parent="GuU51cK0R8P09dkp39Ko-28">
          <mxGeometry x="20" y="130" width="100" height="40" as="geometry" />
        </mxCell>
        <mxCell id="GuU51cK0R8P09dkp39Ko-31" value="" style="html=1;rounded=1;curved=0;sourcePerimeterSpacing=0;targetPerimeterSpacing=0;startSize=6;endSize=6;fontSize=12;noEdgeStyle=1;orthogonal=1;" edge="1" parent="GuU51cK0R8P09dkp39Ko-28" source="GuU51cK0R8P09dkp39Ko-29" target="GuU51cK0R8P09dkp39Ko-30">
          <mxGeometry relative="1" as="geometry">
            <Array as="points">
              <mxPoint x="112.5" y="92" />
              <mxPoint x="70" y="118" />
            </Array>
          </mxGeometry>
        </mxCell>
        <mxCell id="GuU51cK0R8P09dkp39Ko-32" value="Task" style="whiteSpace=wrap;html=1;" vertex="1" parent="GuU51cK0R8P09dkp39Ko-28">
          <mxGeometry x="150" y="130" width="100" height="40" as="geometry" />
        </mxCell>
        <mxCell id="GuU51cK0R8P09dkp39Ko-33" value="" style="html=1;rounded=1;curved=0;sourcePerimeterSpacing=0;targetPerimeterSpacing=0;startSize=6;endSize=6;fontSize=12;noEdgeStyle=1;orthogonal=1;" edge="1" parent="GuU51cK0R8P09dkp39Ko-28" source="GuU51cK0R8P09dkp39Ko-29" target="GuU51cK0R8P09dkp39Ko-32">
          <mxGeometry relative="1" as="geometry">
            <Array as="points">
              <mxPoint x="157.5" y="92" />
              <mxPoint x="200" y="118" />
            </Array>
          </mxGeometry>
        </mxCell>
        <mxCell id="GuU51cK0R8P09dkp39Ko-34" value="End" style="whiteSpace=wrap;html=1;" vertex="1" parent="GuU51cK0R8P09dkp39Ko-28">
          <mxGeometry x="85" y="220" width="100" height="40" as="geometry" />
        </mxCell>
        <mxCell id="GuU51cK0R8P09dkp39Ko-35" value="" style="html=1;rounded=1;curved=0;sourcePerimeterSpacing=0;targetPerimeterSpacing=0;startSize=6;endSize=6;fontSize=12;noEdgeStyle=1;orthogonal=1;" edge="1" parent="GuU51cK0R8P09dkp39Ko-28" source="GuU51cK0R8P09dkp39Ko-30" target="GuU51cK0R8P09dkp39Ko-34">
          <mxGeometry relative="1" as="geometry">
            <Array as="points">
              <mxPoint x="70" y="182" />
              <mxPoint x="112.5" y="208" />
            </Array>
          </mxGeometry>
        </mxCell>
        <mxCell id="GuU51cK0R8P09dkp39Ko-36" value="" style="html=1;rounded=1;curved=0;sourcePerimeterSpacing=0;targetPerimeterSpacing=0;startSize=6;endSize=6;fontSize=12;noEdgeStyle=1;orthogonal=1;" edge="1" parent="GuU51cK0R8P09dkp39Ko-28" source="GuU51cK0R8P09dkp39Ko-32" target="GuU51cK0R8P09dkp39Ko-34">
          <mxGeometry relative="1" as="geometry">
            <Array as="points">
              <mxPoint x="200" y="182" />
              <mxPoint x="157.5" y="208" />
            </Array>
          </mxGeometry>
        </mxCell>
        <mxCell id="GuU51cK0R8P09dkp39Ko-38" value="Type" style="whiteSpace=wrap;html=1;" vertex="1" parent="1">
          <mxGeometry x="180" y="142" width="120" height="60" as="geometry" />
        </mxCell>
        <mxCell id="GuU51cK0R8P09dkp39Ko-41" value="&lt;b&gt;Collections&lt;/b&gt; Framework" style="whiteSpace=wrap;html=1;" vertex="1" parent="1">
          <mxGeometry x="83" y="283" width="120" height="60" as="geometry" />
        </mxCell>
        <mxCell id="GuU51cK0R8P09dkp39Ko-42" value="Generics" style="whiteSpace=wrap;html=1;" vertex="1" parent="1">
          <mxGeometry x="231.5" y="283" width="120" height="60" as="geometry" />
        </mxCell>
      </root>
    </mxGraphModel>
  </diagram>
  <diagram id="ucsflzZs6Nep-z_W16yZ" name="JavaScript">
    <mxGraphModel dx="1434" dy="804" grid="0" gridSize="10" guides="1" tooltips="1" connect="1" arrows="1" fold="1" page="0" pageScale="1" pageWidth="850" pageHeight="1100" math="0" shadow="0">
      <root>
        <mxCell id="0" />
        <mxCell id="1" parent="0" />
      </root>
    </mxGraphModel>
  </diagram>
  <diagram id="AWbEERBa1Gv_ysZ6WEEm" name="Go">
    <mxGraphModel dx="1434" dy="804" grid="0" gridSize="10" guides="1" tooltips="1" connect="1" arrows="1" fold="1" page="0" pageScale="1" pageWidth="850" pageHeight="1100" math="0" shadow="0">
      <root>
        <mxCell id="0" />
        <mxCell id="1" parent="0" />
      </root>
    </mxGraphModel>
  </diagram>
  <diagram id="lyWx6grwJTbsv6SXd4j2" name="Page-4">
    <mxGraphModel grid="0" page="0" gridSize="10" guides="1" tooltips="1" connect="1" arrows="1" fold="1" pageScale="1" pageWidth="850" pageHeight="1100" math="0" shadow="0">
      <root>
        <mxCell id="0" />
        <mxCell id="1" parent="0" />
      </root>
    </mxGraphModel>
  </diagram>
</mxfile>
